<?xml version="1.0" standalone="no"?>
<!DOCTYPE svg PUBLIC "-//W3C//DTD SVG 20010904//EN"
 "http://www.w3.org/TR/2001/REC-SVG-20010904/DTD/svg10.dtd">
<svg version="1.0" xmlns="http://www.w3.org/2000/svg"
 width="700.000000pt" height="700.000000pt" viewBox="0 0 700.000000 700.000000"
 preserveAspectRatio="xMidYMid meet">
<metadata>
Created by potrace 1.14, written by Peter Selinger 2001-2017
</metadata>
<g transform="translate(0.000000,700.000000) scale(0.100000,-0.100000)"
fill="#000000" stroke="none">
<path d="M3180 6149 c-251 -41 -432 -85 -605 -147 -539 -195 -1004 -555 -1312
-1017 -128 -191 -253 -449 -325 -670 -36 -110 -88 -320 -88 -355 0 -34 -15
-55 -40 -56 -11 -1 -143 -2 -293 -3 l-273 -1 1 -97 0 -98 1628 -3 1627 -2 0
100 0 100 -1062 1 c-1098 0 -1355 2 -1363 11 -7 6 31 176 61 278 39 127 89
249 164 400 128 257 231 401 435 606 187 188 290 270 485 388 223 135 457 228
742 296 163 39 216 43 533 44 307 0 334 -2 550 -48 277 -58 651 -233 911 -427
84 -62 143 -112 327 -281 59 -53 45 -57 159 47 l63 57 -86 81 c-188 178 -285
257 -444 362 -351 233 -694 360 -1160 432 -59 9 -581 10 -635 2z"/>
<path d="M3397 5354 c-1 -1 -42 -4 -92 -7 -321 -21 -717 -180 -984 -395 -156
-126 -270 -252 -383 -422 -92 -141 -165 -276 -155 -287 5 -4 392 -8 860 -8
l852 0 0 99 0 99 -672 2 c-370 0 -675 4 -679 8 -23 23 188 249 338 362 244
184 526 300 808 331 138 15 417 6 520 -17 25 -6 56 -13 70 -15 46 -9 224 -72
292 -103 105 -49 234 -127 322 -194 91 -69 80 -59 173 -149 l70 -68 74 67 c41
36 75 69 77 73 4 10 -141 147 -234 220 -207 166 -446 284 -704 350 -96 25 -90
23 -185 39 -54 9 -360 21 -368 15z"/>
<path d="M251 3350 c-5 -4 -7 -168 -2 -190 0 -3 317 -6 703 -8 386 -1 703 -4
705 -5 2 -2 17 -53 33 -113 74 -265 172 -459 338 -669 62 -78 211 -229 287
-291 249 -201 618 -358 919 -391 84 -9 462 -10 526 -1 295 42 647 192 860 367
91 74 261 233 278 259 16 24 15 26 -48 83 -36 32 -72 61 -80 64 -10 3 -52 -31
-116 -94 -114 -112 -216 -190 -340 -262 -47 -27 -87 -49 -89 -49 -2 0 -37 -15
-78 -34 -78 -37 -279 -101 -344 -111 -21 -3 -50 -8 -63 -11 -14 -3 -104 -6
-200 -8 -232 -4 -341 8 -489 50 -367 106 -660 308 -886 609 -69 91 -171 275
-216 385 -31 78 -70 212 -63 219 3 3 366 6 807 6 l802 0 0 100 0 100 -1618 0
c-891 0 -1622 -2 -1626 -5z"/>
<path d="M245 2700 l0 -100 90 0 c450 -3 626 -7 633 -15 5 -6 26 -53 47 -105
171 -426 511 -850 911 -1137 315 -226 637 -364 1046 -448 177 -37 220 -40 503
-40 322 0 425 11 660 70 55 14 110 28 123 31 25 5 223 77 257 93 371 174 520
267 724 450 93 84 284 276 289 291 4 11 -39 55 -110 113 l-47 38 -113 -113
c-154 -153 -261 -242 -414 -344 -122 -81 -392 -224 -425 -224 -8 0 -19 -4 -24
-9 -18 -16 -288 -99 -394 -121 -209 -42 -285 -49 -536 -45 -132 2 -251 6 -265
9 -14 3 -47 7 -75 11 -370 44 -797 222 -1111 462 -123 94 -133 104 -254 223
-256 253 -451 558 -575 897 -32 88 -41 102 -63 106 -14 3 -217 6 -452 6 l-425
2 0 -101z"/>
</g>
</svg>
