<svg version="1.0" xmlns="http://www.w3.org/2000/svg"
 width="630" height="630" viewBox="0 0 630 630"
 preserveAspectRatio="xMidYMid meet">

<g transform="translate(0,630) scale(0.100000,-0.100000)"
fill="currentColor" stroke="none">
<path d="M2930 5540 c-745 -72 -1413 -469 -1809 -1075 -100 -153 -211 -383
-270 -560 -46 -138 -91 -323 -91 -374 0 -21 -3 -21 -270 -21 l-270 0 0 -90 0
-90 1465 0 1465 0 0 90 0 90 -1096 0 c-1038 0 -1095 1 -1090 18 2 9 10 44 16
77 30 158 86 316 175 500 119 246 233 405 429 600 322 319 722 524 1196 612
121 22 558 25 690 5 455 -71 873 -279 1217 -607 l113 -107 32 27 c18 15 53 46
77 68 l44 41 -104 101 c-399 386 -866 613 -1409 685 -110 15 -401 20 -510 10z"/>
<path d="M2887 4804 c-426 -66 -818 -293 -1068 -619 -91 -118 -219 -335 -219
-370 0 -3 349 -5 775 -5 l775 0 0 90 0 90 -615 0 c-338 0 -615 4 -615 8 0 16
131 170 192 227 233 216 507 348 815 394 104 16 352 13 461 -4 282 -46 568
-190 785 -395 l92 -88 70 64 70 63 -93 90 c-100 96 -223 188 -351 262 -158 91
-412 175 -603 199 -113 14 -364 11 -471 -6z"/>
<path d="M220 2930 l0 -90 637 -2 636 -3 28 -105 c33 -126 76 -239 131 -340
247 -455 646 -752 1158 -861 141 -31 495 -34 632 -6 254 51 474 145 673 286
84 60 305 266 305 285 0 6 -8 18 -18 26 -9 8 -40 34 -69 58 l-51 42 -73 -76
c-215 -222 -470 -361 -789 -430 -127 -28 -448 -26 -580 4 -364 80 -672 276
-890 567 -111 147 -214 362 -249 515 l-9 40 729 0 729 0 0 90 0 90 -1465 0
-1465 0 0 -90z"/>
<path d="M220 2430 l0 -90 326 -2 325 -3 29 -72 c169 -437 514 -853 925 -1118
298 -193 616 -309 1000 -367 136 -20 511 -17 655 5 275 43 484 108 725 227
174 85 319 178 457 291 91 75 319 301 317 316 0 4 -33 36 -72 70 l-72 62 -95
-97 c-168 -173 -347 -310 -546 -418 -144 -78 -254 -122 -489 -194 -63 -19
-235 -50 -344 -61 -225 -23 -587 3 -766 56 -27 8 -84 24 -125 36 -87 26 -232
85 -334 136 -520 262 -924 739 -1101 1301 -3 9 -94 12 -410 12 l-405 0 0 -90z"/>
</g>
</svg>
